<svg class='icon' xmlns="http://www.w3.org/2000/svg" viewBox="0 0 7.0656494 2.4007318"><path fill="#b7b1d0" fill-rule="evenodd" d="m 3.5349985,-0.72581176 c -1.1842769,0 -2.0018883,0.35400174 -2.3486893,0.98954053 C 0.97532378,0.18714737 0.82039972,-0.36583061 0.64696112,-0.472475 0.55965522,-0.5264882 0.49497604,-0.5384236 0.45876211,-0.5397769 c -0.0217284,-8.1257e-4 -0.0331841,0.002206 -0.0331841,0.002206 -0.31608339,0 -0.64165076,0.93046779 -0.23678701,1.34124133 C 0.40435818,1.0239573 0.80375988,1.0847167 0.9990014,1.0678281 1.013824,1.7017131 1.3834393,2.2723233 1.8693846,2.5462615 2.1179695,2.6859257 2.3854983,2.7610067 2.6329164,2.8556972 2.9395131,2.9740795 3.2283738,3.0842197 3.5184065,3.1095856 h 0.015404 0.015362 c 0.2912252,0 0.5789101,-0.136673 0.8855324,-0.2538884 C 4.6820976,2.7610072 4.9496519,2.6879628 5.198237,2.5482986 5.6868813,2.2744159 6.056256,1.7020482 6.0710814,1.0681253 6.2678092,1.0837843 6.6628379,1.0223803 6.876836,0.80367063 7.2817253,0.39289709 6.956175,-0.5375707 6.6400915,-0.5375707 c 0,0 -0.011457,-0.003018 -0.033184,-0.002206 C 6.5706955,-0.5384227 6.506041,-0.526488 6.4187508,-0.4724748 6.2462196,-0.36640442 6.0920071,0.18116886 5.8827545,0.26241344 5.5354328,-0.37151823 4.7182157,-0.72581176 3.5349985,-0.72581176 Z M 2.2458674,0.04938995 c 0.5607873,0 1.0153834,0.45466341 1.0153834,1.01542585 0,0.5607621 -0.4545961,1.0153834 -1.0153834,1.0153834 -0.5607874,0 -1.0153834,-0.4546213 -1.0153834,-1.0153834 0,-0.56076244 0.454596,-1.01542606 1.0153834,-1.01542585 z m 2.5782624,0 c 0.5607873,0 1.0153834,0.45466363 1.0153834,1.01542585 0,0.5607621 -0.4545961,1.0153834 -1.0153834,1.0153834 -0.5607872,0 -1.0153834,-0.4546213 -1.0153834,-1.0153834 0,-0.56076222 0.4545962,-1.01542585 1.0153834,-1.01542585 z M 0.53870957,0.07472349 c 0.0929833,0.004473 0.20248417,0.18311908 0.27629393,0.27557268 0.1905987,0.2403157 -0.54103916,0.4628496 -0.40134973,-0.10184387 0.0321488,-0.13062696 0.0763502,-0.1760716 0.1250558,-0.17372881 z m 5.99733093,4.346e-5 c 0.048842,-0.002339 0.093162,0.0431018 0.1253104,0.17372881 0.1396894,0.56466826 -0.5919062,0.34207482 -0.4013074,0.10175891 0.073027,-0.0924538 0.182753,-0.27102224 0.275997,-0.27548772 z m -4.145088,0.54461018 c -0.09398,0 -0.1812392,0.0287687 -0.2535063,0.077953 0.1011079,0.00416 0.1818336,0.087222 0.1818336,0.18934486 0,0.10476069 -0.084898,0.18968421 -0.1896841,0.18968421 -0.07942,0 -0.1473554,-0.048831 -0.1756383,-0.11805412 -0.00918,0.035893 -0.014088,0.073524 -0.014088,0.11228292 0,0.2491685 0.2019657,0.4512532 0.4510834,0.4512532 0.2491674,0 0.4512956,-0.2020847 0.4512956,-0.4512532 0,-0.24916848 -0.2021282,-0.45121086 -0.4512959,-0.45121087 z m 2.2909779,0 c -0.09398,0 -0.1812221,0.0287687 -0.253464,0.077953 0.1011083,0.00416 0.1818337,0.087222 0.1818337,0.18934486 0,0.10476069 -0.084898,0.18968421 -0.1896843,0.18968421 -0.079421,0 -0.1473806,-0.048831 -0.1756381,-0.11805412 -0.00921,0.035893 -0.014088,0.073524 -0.014088,0.11228292 0,0.2491685 0.2019237,0.4512532 0.451041,0.4512532 0.2491685,0 0.4513382,-0.2020847 0.451338,-0.4512532 2e-7,-0.24916848 -0.2021695,-0.45121086 -0.4513383,-0.45121087 z M 3.3654286,2.1666827 c 0.028385,-0.00225 0.051674,0.00579 0.059664,0.030723 0.00799,0.02496 -0.0048,0.056011 -0.030723,0.059664 -0.060725,0.00857 -0.06064,0.019153 -0.06064,0.050073 0,0.030794 0.035588,0.043748 0.042944,0.045448 0.025518,0.00596 0.041369,0.03143 0.035433,0.056947 -0.00513,0.021891 -0.024608,0.036706 -0.046169,0.036706 -0.079902,0 -0.1259893,-0.051684 -0.1259893,-0.1214913 0,-0.1096311 0.046161,-0.1517034 0.1254803,-0.1580697 z m 0.3402859,0 c 0.079319,0.00636 0.1254375,0.048439 0.1254375,0.1580701 0,0.069807 -0.046087,0.1214914 -0.1259892,0.1214914 -0.021561,0 -0.041045,-0.014815 -0.046169,-0.036706 -0.00594,-0.025518 0.00991,-0.050986 0.035433,-0.056947 0.00735,-0.0017 0.042986,-0.014654 0.042986,-0.045448 0,-0.030921 4.35e-5,-0.041499 -0.060682,-0.050073 -0.025924,-0.00365 -0.038671,-0.034704 -0.030681,-0.059664 0.00799,-0.024935 0.031279,-0.03298 0.059665,-0.030724 z" data-darkreader-inline-fill=""></path></svg>
